<?xml version="1.0" standalone="no"?>
<!DOCTYPE svg PUBLIC "-//W3C//DTD SVG 20010904//EN"
 "http://www.w3.org/TR/2001/REC-SVG-20010904/DTD/svg10.dtd">
<svg version="1.0" xmlns="http://www.w3.org/2000/svg"
 width="145.1000000pt" height="13.7000000pt" viewBox="0 0 1451.000000 137.000000"
 preserveAspectRatio="xMidYMid meet">
<metadata>
Created by potrace 1.16, written by Peter Selinger 2001-2019
</metadata>
<g transform="translate(0.000000,137.000000) scale(0.100000,-0.100000)"
fill="#4D321E" stroke="none">
<path d="M913 1177 c-116 -97 -228 -216 -244 -260 -11 -33 -15 -35 -68 -40
-67 -6 -167 -47 -313 -129 -90 -50 -106 -62 -99 -76 23 -42 412 -607 420 -610
5 -2 50 20 100 49 175 99 347 160 365 130 4 -6 14 -11 21 -11 10 0 13 8 9 28
-10 51 79 152 291 327 l49 41 -214 312 c-117 172 -217 312 -221 312 -5 0 -48
-33 -96 -73z"/>
<path d="M1922 1092 c-85 -31 -132 -90 -132 -167 0 -89 61 -143 237 -209 85
-32 123 -70 123 -122 0 -47 -23 -79 -71 -98 -86 -35 -175 -6 -211 68 -20 43
-25 46 -60 46 -26 0 -38 -4 -38 -14 0 -51 65 -130 130 -159 60 -27 160 -27
220 0 79 35 117 93 112 168 -7 93 -74 152 -233 204 -135 44 -168 142 -70 208
72 49 166 22 203 -58 21 -45 26 -48 61 -49 41 0 47 13 26 67 -38 102 -180 156
-297 115z"/>
<path d="M6536 1096 c-88 -33 -136 -92 -136 -169 0 -93 51 -143 210 -201 111
-41 150 -76 150 -132 0 -27 -8 -44 -33 -69 -75 -75 -217 -49 -254 45 -15 37
-19 40 -55 40 -33 0 -38 -3 -38 -22 0 -13 10 -40 23 -60 44 -73 118 -111 217
-111 135 0 220 70 220 180 0 83 -64 153 -173 189 -134 43 -187 84 -187 144 0
36 28 77 64 94 79 37 164 7 201 -71 18 -40 23 -43 57 -43 43 0 47 10 23 68
-20 47 -50 79 -97 103 -51 26 -143 33 -192 15z"/>
<path d="M7130 1101 c-126 -39 -180 -141 -180 -340 0 -174 44 -277 136 -322
133 -64 293 10 320 149 6 32 6 32 -35 32 -30 0 -41 -4 -41 -15 0 -31 -41 -95
-70 -110 -41 -21 -108 -19 -148 5 -55 34 -76 94 -80 236 -5 151 12 221 65 271
29 28 42 33 84 33 28 0 63 -7 79 -15 29 -15 70 -79 70 -110 0 -11 11 -15 40
-15 44 0 46 3 28 64 -31 102 -161 169 -268 137z"/>
<path d="M8265 1098 c-55 -19 -93 -57 -127 -125 -33 -67 -33 -69 -33 -213 0
-130 2 -150 23 -195 53 -116 143 -167 251 -144 102 22 165 111 184 260 20 162
-17 306 -97 377 -55 48 -133 64 -201 40z m141 -83 c60 -39 90 -149 81 -294 -9
-148 -49 -220 -132 -235 -69 -13 -140 44 -165 133 -15 55 -12 240 5 297 14 47
59 103 95 117 24 10 89 0 116 -18z"/>
<path d="M8845 1100 c-49 -15 -102 -67 -132 -128 -25 -52 -28 -69 -31 -184 -4
-141 9 -210 55 -280 80 -120 259 -123 343 -6 45 62 60 125 60 258 0 172 -36
265 -124 319 -40 25 -125 35 -171 21z m140 -84 c107 -70 109 -439 3 -508 -68
-44 -155 -21 -196 51 -51 91 -51 312 0 404 41 72 127 96 193 53z"/>
<path d="M11718 1094 c-89 -27 -149 -116 -134 -198 13 -68 89 -130 201 -166
112 -36 155 -74 155 -138 0 -35 -6 -49 -28 -72 -35 -34 -105 -48 -162 -31 -42
13 -100 71 -100 101 0 17 -7 20 -45 20 -44 0 -45 -1 -39 -27 18 -78 80 -135
170 -158 199 -51 361 113 260 265 -26 39 -105 84 -219 125 -76 27 -107 59
-107 109 0 69 50 116 125 116 73 0 145 -56 145 -112 0 -15 9 -18 44 -18 l44 0
-8 36 c-16 72 -76 131 -156 153 -51 14 -88 13 -146 -5z"/>
<path d="M12296 1096 c-88 -33 -136 -92 -136 -169 0 -93 51 -143 210 -201 111
-41 150 -76 150 -132 0 -27 -8 -44 -33 -69 -75 -75 -217 -49 -254 45 -15 37
-19 40 -55 40 -33 0 -38 -3 -38 -22 0 -13 10 -40 23 -60 44 -73 118 -111 217
-111 135 0 220 70 220 180 0 83 -64 153 -173 189 -134 43 -187 84 -187 144 0
36 28 77 64 94 79 37 164 7 201 -71 18 -40 23 -43 57 -43 43 0 47 10 23 68
-20 47 -50 79 -97 103 -51 26 -143 33 -192 15z"/>
<path d="M12875 1098 c-55 -19 -93 -57 -127 -125 -33 -67 -33 -69 -33 -213 0
-130 2 -150 23 -195 53 -116 143 -167 251 -144 102 22 165 111 184 260 20 162
-17 306 -97 377 -55 48 -133 64 -201 40z m141 -83 c60 -39 90 -149 81 -294 -9
-148 -49 -220 -132 -235 -69 -13 -140 44 -165 133 -15 55 -12 240 5 297 14 47
59 103 95 117 24 10 89 0 116 -18z"/>
<path d="M14026 1096 c-88 -33 -136 -92 -136 -169 0 -93 51 -143 210 -201 111
-41 150 -76 150 -132 0 -27 -8 -44 -33 -69 -75 -75 -217 -49 -254 45 -15 37
-19 40 -55 40 -33 0 -38 -3 -38 -22 0 -13 10 -40 23 -60 44 -73 118 -111 217
-111 135 0 220 70 220 180 0 83 -64 153 -173 189 -134 43 -187 84 -187 144 0
36 28 77 64 94 79 37 164 7 201 -71 18 -40 23 -43 57 -43 43 0 47 10 23 68
-20 47 -50 79 -97 103 -51 26 -143 33 -192 15z"/>
<path d="M2440 774 c-58 -179 -106 -332 -108 -340 -3 -10 7 -14 36 -14 l39 0
27 90 27 90 117 0 117 0 28 -90 27 -90 39 0 39 0 -24 78 c-13 42 -61 194 -107
337 l-83 260 -34 3 -35 3 -105 -327z m189 44 c23 -75 41 -139 41 -142 0 -9
-180 -7 -180 2 -1 20 86 290 91 284 4 -4 25 -69 48 -144z"/>
<path d="M2940 760 l0 -343 143 5 c129 4 147 7 193 31 84 43 123 134 95 220
-13 39 -72 97 -99 97 -10 0 1 15 32 43 47 41 50 46 54 103 3 50 0 64 -20 94
-13 19 -44 46 -68 60 -41 22 -58 25 -187 28 l-143 4 0 -342z m280 255 c40 -20
60 -53 60 -95 0 -76 -55 -110 -180 -110 l-80 0 0 110 0 110 85 0 c57 0 96 -5
115 -15z m46 -317 c40 -44 45 -94 15 -144 -29 -47 -75 -64 -175 -64 l-86 0 0
126 0 126 106 -4 106 -3 34 -37z"/>
<path d="M3520 760 l0 -342 138 4 c110 3 146 8 182 24 98 44 140 138 105 230
-16 42 -68 94 -93 94 -21 0 -12 14 21 35 45 28 69 79 64 136 -5 60 -35 101
-95 131 -41 20 -65 23 -184 26 l-138 4 0 -342z m274 256 c62 -26 83 -85 51
-145 -22 -43 -70 -61 -164 -61 l-81 0 0 110 0 110 80 0 c46 0 95 -6 114 -14z
m23 -296 c35 -21 63 -66 63 -100 0 -41 -32 -90 -71 -110 -29 -15 -59 -20 -124
-20 l-85 0 0 125 0 125 93 0 c74 0 98 -4 124 -20z"/>
<path d="M4167 768 c-59 -183 -107 -336 -107 -340 0 -5 17 -8 38 -8 l37 0 26
88 26 87 119 0 118 0 26 -85 26 -85 37 -3 c26 -2 37 1 37 10 0 7 -47 159 -104
338 l-104 325 -34 3 -34 3 -107 -333z m189 51 c24 -79 42 -144 40 -146 -2 -2
-44 -2 -93 -1 l-90 3 45 147 c25 82 47 146 50 144 2 -3 24 -69 48 -147z"/>
<path d="M4630 1065 l0 -35 105 0 105 0 0 -305 0 -305 40 0 40 0 0 305 0 305
105 0 105 0 0 35 0 35 -250 0 -250 0 0 -35z"/>
<path d="M5230 760 l0 -340 40 0 40 0 0 160 0 161 143 -3 142 -3 3 -157 3
-158 34 0 35 0 0 340 0 340 -35 0 -35 0 0 -145 0 -145 -145 0 -145 0 0 145 0
145 -40 0 -40 0 0 -340z"/>
<path d="M7540 760 l0 -340 35 0 34 0 3 158 3 157 143 3 142 3 0 -161 0 -160
40 0 40 0 0 340 0 340 -40 0 -40 0 0 -145 0 -145 -145 0 -145 0 0 145 0 145
-35 0 -35 0 0 -340z"/>
<path d="M9290 760 l0 -340 210 0 210 0 0 35 0 35 -170 0 -170 0 0 305 0 305
-40 0 -40 0 0 -340z"/>
<path d="M10450 760 l0 -340 205 0 205 0 0 35 0 35 -165 0 -165 0 0 305 0 305
-40 0 -40 0 0 -340z"/>
<path d="M11020 760 l0 -340 205 0 205 0 0 35 0 35 -165 0 -165 0 0 125 0 125
140 0 140 0 0 35 0 35 -140 0 -140 0 0 110 0 110 160 0 160 0 0 35 0 35 -200
0 -200 0 0 -340z"/>
<path d="M13300 760 l0 -340 40 0 40 0 0 258 c1 204 3 254 13 240 7 -9 68
-124 137 -257 l125 -241 43 0 42 0 0 340 0 340 -45 0 -45 0 -2 -252 -3 -253
-130 252 -130 253 -42 0 -43 0 0 -340z"/>
</g>
</svg>
