<?xml version="1.0" standalone="no"?>
<!DOCTYPE svg PUBLIC "-//W3C//DTD SVG 20010904//EN"
 "http://www.w3.org/TR/2001/REC-SVG-20010904/DTD/svg10.dtd">
<svg version="1.0" xmlns="http://www.w3.org/2000/svg"
 width="762.000000pt" height="1280.000000pt" viewBox="0 0 762.000000 1280.000000"
 preserveAspectRatio="xMidYMid meet">
<metadata>
Created by potrace 1.15, written by Peter Selinger 2001-2017
</metadata>
<g transform="translate(0.000000,1280.000000) scale(0.100000,-0.100000)"
fill="#4D321E" stroke="none">
<path d="M2879 12786 c-107 -23 -162 -52 -227 -119 -113 -119 -219 -354 -326
-729 -58 -202 -244 -987 -276 -1166 -16 -90 -39 -252 -50 -360 -11 -108 -22
-213 -25 -232 -17 -114 -23 -306 -14 -452 19 -342 41 -598 62 -723 18 -112 21
-169 21 -420 0 -243 -3 -300 -17 -351 -19 -68 -23 -159 -7 -149 5 3 10 13 10
22 0 28 42 173 50 173 4 0 11 -30 15 -66 4 -36 9 -64 11 -62 9 9 34 352 34
468 0 124 -31 586 -49 744 -18 150 -23 254 -16 313 6 58 19 93 29 82 8 -8 23
-157 46 -454 11 -143 29 -350 40 -460 10 -110 21 -240 24 -290 4 -49 14 -182
23 -295 13 -168 14 -225 5 -315 -6 -60 -15 -155 -18 -210 l-7 -100 -71 -79
c-93 -105 -104 -115 -151 -153 -50 -39 -39 -56 12 -19 21 14 67 47 102 72 68
48 84 51 89 14 10 -63 -12 -112 -154 -361 -80 -140 -199 -360 -264 -489 -65
-130 -126 -246 -137 -258 -13 -17 -42 -28 -113 -42 -149 -31 -152 -33 -189
-130 l-19 -50 56 -165 57 -165 41 0 c49 0 94 -31 94 -64 0 -30 -110 -187 -270
-386 -124 -154 -206 -264 -229 -308 -10 -18 -8 -30 10 -70 12 -26 34 -79 49
-119 15 -39 61 -127 101 -194 72 -121 74 -125 73 -189 0 -54 -9 -86 -48 -185
-27 -66 -70 -163 -96 -215 -53 -107 -75 -167 -151 -425 -57 -193 -67 -211
-232 -439 -73 -100 -77 -115 -43 -181 14 -29 26 -59 26 -68 0 -46 -107 -237
-278 -497 -354 -539 -461 -736 -478 -885 -6 -53 -6 -54 27 -74 18 -11 46 -23
61 -26 15 -4 59 -35 98 -70 70 -63 73 -64 173 -87 89 -20 113 -29 189 -80 47
-32 110 -82 140 -111 150 -148 219 -228 268 -312 112 -190 135 -205 261 -174
48 13 98 19 121 16 59 -8 156 -58 233 -120 77 -62 130 -86 148 -68 8 8 8 30
-1 84 -12 69 -12 73 9 89 26 22 160 25 199 5 14 -7 53 -54 86 -105 88 -135 86
-133 126 -86 18 21 56 63 85 93 l51 55 35 -16 c19 -9 67 -44 108 -78 41 -35
89 -70 107 -78 30 -15 35 -15 61 1 35 21 70 22 77 3 3 -7 -9 -57 -26 -109
l-32 -96 22 -36 c12 -20 32 -40 44 -45 13 -4 67 0 135 12 l114 20 311 -36
c171 -19 401 -44 511 -56 206 -20 266 -33 357 -75 68 -32 98 -32 129 1 21 23
147 116 307 226 30 21 61 38 69 38 8 0 46 -30 84 -66 64 -62 71 -66 104 -61
54 9 87 39 130 117 49 89 89 125 163 146 82 23 175 68 357 171 88 50 174 94
191 97 22 5 62 -3 139 -28 l109 -36 80 36 c135 60 145 62 194 29 35 -23 50
-27 86 -23 65 8 147 50 212 109 33 30 79 63 104 73 206 86 258 129 365 295 33
51 67 101 76 111 10 11 51 24 110 34 73 14 102 24 131 47 28 22 61 34 130 48
144 30 162 41 193 114 20 47 19 91 -2 149 l-16 47 36 80 c20 44 37 88 37 97 0
25 -68 159 -91 180 -16 15 -25 16 -58 6 l-38 -12 -114 113 c-70 68 -157 141
-224 187 -60 41 -137 101 -171 133 -44 41 -90 70 -161 103 -108 51 -147 82
-162 128 -6 17 -19 100 -30 183 -11 84 -25 162 -31 173 -8 15 -21 20 -48 20
l-38 0 -108 198 c-132 240 -173 304 -260 407 -113 133 -227 277 -264 332 -30
46 -34 58 -29 99 6 59 30 91 98 130 30 17 68 45 84 61 42 41 155 226 155 252
0 12 -8 38 -19 59 -10 20 -26 63 -35 94 -22 76 -66 132 -157 198 -42 30 -109
93 -150 140 -40 47 -147 161 -236 254 -90 93 -163 176 -163 185 0 9 8 28 17
41 22 32 22 140 -2 230 -33 128 -101 257 -297 557 -150 229 -178 283 -178 337
0 23 17 100 39 171 47 158 56 219 41 274 -17 62 -64 108 -195 186 -153 92
-183 118 -283 254 -46 62 -116 143 -156 179 -208 192 -304 307 -325 387 -13
52 -57 430 -72 615 -13 166 -7 358 16 475 20 105 63 240 85 268 l18 22 49 -35
c121 -87 267 -179 355 -224 91 -46 99 -48 128 -36 42 18 132 118 225 252 178
257 164 240 193 234 42 -9 83 -9 138 -1 l51 7 69 -77 69 -77 49 6 c42 5 53 2
79 -20 16 -14 37 -24 45 -22 29 6 55 112 56 228 1 165 -27 209 -219 339 -56
38 -107 76 -114 85 -11 13 -2 34 61 138 85 142 226 298 269 298 14 0 54 -20
89 -45 35 -25 72 -45 81 -45 25 0 139 145 141 178 2 47 -2 65 -20 85 -27 30
-53 36 -102 21 -64 -19 -80 -17 -120 15 l-34 29 13 51 c11 45 11 55 -2 75 -19
28 -82 59 -169 82 -64 17 -66 17 -100 -4 -20 -12 -44 -22 -54 -22 -23 0 -270
77 -299 93 -11 6 -58 21 -105 34 -47 13 -119 32 -160 44 -41 12 -94 25 -117
31 -90 20 -93 25 -282 383 -32 61 -84 157 -116 215 -32 58 -99 188 -151 290
-51 102 -103 201 -116 220 -13 19 -35 54 -48 78 -26 46 -56 60 -89 43 -17 -10
-23 -7 -37 14 -9 14 -24 25 -34 25 -10 0 -45 22 -77 48 -143 119 -263 182
-439 232 -131 37 -258 46 -355 26z m1230 -1004 c272 -506 266 -492 207 -520
-26 -13 -30 -12 -64 17 -21 18 -57 45 -82 62 -50 33 -56 34 -237 9 -90 -12
-163 -8 -163 9 0 5 12 109 27 232 22 184 27 267 28 467 0 220 1 241 15 221 8
-12 129 -236 269 -497z m-359 -204 c0 -7 -14 -60 -30 -117 -17 -57 -30 -110
-30 -117 0 -17 -48 -30 -61 -17 -7 7 1 34 25 82 20 39 46 96 57 126 19 51 39
73 39 43z m280 -283 c0 -21 -34 -53 -64 -61 -29 -7 -86 20 -86 41 0 17 49 33
108 34 31 1 42 -3 42 -14z m1206 -401 c28 -8 59 -21 70 -29 18 -14 15 -19 -63
-93 -45 -42 -86 -86 -91 -97 -6 -11 -24 -76 -42 -145 -36 -140 -55 -184 -75
-177 -9 4 -11 -1 -8 -16 6 -29 -20 12 -71 110 l-38 73 70 65 c95 88 112 126
112 244 l0 94 43 -7 c23 -4 65 -14 93 -22z m-743 -250 c50 -20 117 -41 147
-46 120 -22 112 -15 216 -208 77 -143 94 -180 89 -205 -10 -52 -32 -65 -151
-82 -94 -13 -135 -14 -294 -3 -364 23 -391 30 -521 139 -108 89 -259 242 -259
261 0 10 19 11 83 6 45 -4 95 -7 112 -7 66 3 259 79 420 165 42 22 53 21 158
-20z m-1693 -1504 c35 -49 90 -176 96 -223 4 -29 -1 -68 -16 -122 -37 -134
-64 -166 -82 -99 -16 60 -48 316 -48 387 0 97 12 110 50 57z m-206 -223 c14
-53 44 -145 67 -205 22 -59 54 -147 71 -196 30 -86 30 -90 18 -162 -7 -41 -16
-74 -20 -74 -4 0 -13 21 -19 48 -15 60 -31 106 -76 214 -49 120 -85 306 -85
442 0 70 13 49 44 -67z m-249 -422 c3 -22 17 -76 30 -120 33 -114 49 -251 42
-353 -9 -139 -60 -272 -104 -272 -12 0 -14 10 -9 53 3 28 9 211 12 406 6 332
11 383 29 286z m279 -289 c3 -17 10 -65 17 -108 6 -42 8 -94 5 -115 -10 -54
-105 -191 -211 -301 -49 -52 -106 -118 -126 -146 -19 -28 -40 -49 -45 -46 -15
8 -4 53 19 82 118 144 176 227 219 314 47 94 52 111 64 220 7 66 16 130 20
144 5 24 6 24 20 6 7 -11 16 -33 18 -50z"/>
</g>
</svg>
